<svg viewBox="0 0 450 450" fill="none" xmlns="http://www.w3.org/2000/svg">
    <g clip-path="url(#clip0_4163_22702)">
        <path
            d="M419.912 337.6C423.05 332.162 425 326.037 425 320.537V129.587C425 124.087 423.05 117.962 419.912 112.537L225 225.062L419.912 337.6Z"
            fill="#00599C"/>
        <path
            d="M242.325 446L407.675 350.537C412.438 347.787 416.775 343.037 419.913 337.6L225 225.062L30.0879 337.6C33.2254 343.037 37.5629 347.787 42.3254 350.537L207.675 446C217.2 451.5 232.8 451.5 242.325 446Z"
            fill="#004482"/>
        <path
            d="M419.912 112.538C416.775 107.088 412.437 102.35 407.675 99.6L242.325 4.125C232.8 -1.375 217.2 -1.375 207.675 4.125L42.325 99.6C32.8 105.1 25 118.6 25 129.6V320.538C25 326.038 26.95 332.163 30.0875 337.6L225 225.063L419.912 112.538Z"
            fill="#659AD2"/>
        <path
            d="M225 358.4C151.475 358.4 91.6621 298.587 91.6621 225.062C91.6621 151.537 151.475 91.7246 225 91.7246C272.437 91.7246 316.687 117.262 340.462 158.35L282.762 191.75C276.889 181.627 268.465 173.221 258.33 167.369C248.195 161.518 236.703 158.425 225 158.4C207.327 158.423 190.384 165.454 177.888 177.95C165.391 190.447 158.36 207.389 158.337 225.062C158.354 242.739 165.382 259.688 177.879 272.19C190.376 284.692 207.322 291.726 225 291.75C236.704 291.723 248.197 288.628 258.332 282.774C268.467 276.921 276.89 268.512 282.762 258.387L340.462 291.775C328.716 312 311.875 328.794 291.616 340.482C271.357 352.169 248.388 358.355 225 358.4Z"
            fill="white"/>
        <path
            d="M300.002 220.872H291.656V212.533H283.324V220.872H274.992V229.204H283.324V237.536H291.656V229.204H299.995L300.002 220.872ZM331.249 220.872H322.917V212.533H314.578V220.872H306.246V229.204H314.578V237.536H322.91V229.204H331.242L331.249 220.872Z"
            fill="white"/>
    </g>
    <defs>
        <clipPath id="clip0_4163_22702">
            <rect width="450" height="450" fill="white"/>
        </clipPath>
    </defs>
</svg>
