<svg viewBox="0 0 99 118" fill="none" xmlns="http://www.w3.org/2000/svg">
    <path d="M91.8017 15.5999C80.9017 -0.100083 59.2017 -4.70008 43.6017 5.19992L16.1017 22.7999C8.60171 27.4999 3.40171 35.1999 1.90171 43.8999C0.601712 51.1999 1.70171 58.6999 5.20171 65.1999C2.80171 68.7999 1.20171 72.7999 0.501712 76.9999C-1.09829 85.8999 1.00171 95.0999 6.20171 102.4C17.2017 118.1 38.8017 122.7 54.4017 112.8L81.9017 95.2999C89.4017 90.5999 94.6017 82.8999 96.1017 74.1999C97.4017 66.8999 96.3017 59.3999 92.8017 52.8999C95.2017 49.2999 96.8017 45.2999 97.5017 41.0999C99.2017 32.0999 97.1017 22.8999 91.8017 15.5999Z"
          fill="#FF3E00"/>
    <path d="M40.9012 103.9C32.0012 106.2 22.7012 102.7 17.5012 95.2001C14.3012 90.8001 13.1012 85.3001 14.0012 79.9001C14.2012 79.0001 14.4012 78.2001 14.6012 77.3001L15.1012 75.7001L16.5012 76.7001C19.8012 79.1001 23.4012 80.9001 27.3012 82.1001L28.3012 82.4001L28.2012 83.4001C28.1012 84.8001 28.5012 86.3001 29.3012 87.5001C30.9012 89.8001 33.7012 90.9001 36.4012 90.2001C37.0012 90.0001 37.6012 89.8001 38.1012 89.5001L65.5012 72.0001C66.9012 71.1001 67.8012 69.8001 68.1012 68.2001C68.4012 66.6001 68.0012 64.9001 67.1012 63.6001C65.5012 61.3001 62.7012 60.3001 60.0012 61.0001C59.4012 61.2001 58.8012 61.4001 58.3012 61.7001L47.8012 68.4001C46.1012 69.5001 44.2012 70.3001 42.2012 70.8001C33.3012 73.1001 24.0012 69.6001 18.8012 62.1001C15.7012 57.7001 14.4012 52.2001 15.4012 46.8001C16.3012 41.6001 19.5012 36.9001 24.0012 34.1001L51.5012 16.6001C53.2012 15.5001 55.1012 14.7001 57.1012 14.1001C66.0012 11.8001 75.3012 15.3001 80.5012 22.8001C83.7012 27.2001 84.9012 32.7001 84.0012 38.1001C83.8012 39.0001 83.6012 39.8001 83.3012 40.7001L82.8012 42.3001L81.4012 41.3001C78.1012 38.9001 74.5012 37.1001 70.6012 35.9001L69.6012 35.6001L69.7012 34.6001C69.8012 33.2001 69.4012 31.7001 68.6012 30.5001C67.0012 28.2001 64.2012 27.2001 61.5012 27.9001C60.9012 28.1001 60.3012 28.3001 59.8012 28.6001L32.4012 46.1001C31.0012 47.0001 30.1012 48.3001 29.8012 49.9001C29.5012 51.5001 29.9012 53.2001 30.8012 54.5001C32.4012 56.8001 35.2012 57.8001 37.9012 57.1001C38.5012 56.9001 39.1012 56.7001 39.6012 56.4001L50.1012 49.7001C51.8012 48.6001 53.7012 47.8001 55.7012 47.2001C64.6012 44.9001 73.9012 48.4001 79.1012 55.9001C82.3012 60.3001 83.5012 65.8001 82.6012 71.2001C81.7012 76.4001 78.5012 81.1001 74.0012 83.9001L46.5012 101.4C44.8012 102.5 42.9012 103.3 40.9012 103.9Z"
          fill="white"/>
</svg>