<svg viewBox="0 0 400 400" fill="none" xmlns="http://www.w3.org/2000/svg">
    <path d="M112.736 129.539L54.5381 198.85" stroke="#F15A24" stroke-width="6.26753" stroke-linecap="round"
          stroke-linejoin="round"/>
    <path
        d="M69.3009 157.094C75.9354 157.094 81.3137 151.716 81.3137 145.081C81.3137 138.447 75.9354 133.068 69.3009 133.068C62.6664 133.068 57.2881 138.447 57.2881 145.081C57.2881 151.716 62.6664 157.094 69.3009 157.094Z"
        stroke="#F15A24" stroke-width="9.78818" stroke-linecap="round" stroke-linejoin="round"/>
    <path
        d="M97.7765 195.358C104.411 195.358 109.789 189.979 109.789 183.345C109.789 176.71 104.411 171.332 97.7765 171.332C91.142 171.332 85.7637 176.71 85.7637 183.345C85.7637 189.979 91.142 195.358 97.7765 195.358Z"
        stroke="#F15A24" stroke-width="9.78818" stroke-linecap="round" stroke-linejoin="round"/>
    <path d="M178.371 197.115H136.812" stroke="#F15A24" stroke-width="6.26753" stroke-linecap="round"
          stroke-linejoin="round"/>
    <path class="dark:invert"
          d="M193.122 352.338H72.111C47.749 352.338 28 332.589 28 308.227V83.111C28 58.749 47.749 39 72.111 39H318.431C342.792 39 362.541 58.749 362.541 83.111V352.338"
          stroke="black" stroke-width="17.8359" stroke-linecap="round"/>
    <path class="dark:invert" d="M32.8184 100.384L355.199 100.383" stroke="black" stroke-width="17.8359"
          stroke-linecap="round"/>
    <path class="dark:invert"
          d="M262.271 352.179C262.271 349.744 261.304 347.408 259.582 345.685C257.859 343.963 255.523 342.996 253.088 342.996C253.017 342.996 252.949 343.005 252.879 343.006H232.236C232.063 343.006 231.892 342.964 231.738 342.882C231.585 342.801 231.454 342.683 231.357 342.539C231.259 342.395 231.199 342.23 231.18 342.057C231.162 341.885 231.186 341.71 231.251 341.549L261.442 266.276C261.938 265.038 262.123 263.698 261.981 262.373C261.84 261.048 261.375 259.777 260.628 258.673C259.881 257.569 258.875 256.665 257.698 256.04C256.521 255.415 255.208 255.088 253.875 255.088H222.055C221.875 255.077 221.697 255.061 221.514 255.061C220.339 255.061 219.175 255.292 218.088 255.742C217.002 256.192 216.016 256.851 215.184 257.682C214.353 258.514 213.694 259.5 213.244 260.586C212.794 261.672 212.563 262.836 212.563 264.012V264.014V264.015C212.562 265.191 212.793 266.355 213.243 267.441C213.692 268.527 214.352 269.514 215.183 270.345C216.014 271.176 217.001 271.835 218.088 272.284C219.174 272.734 220.338 272.964 221.514 272.963C221.655 272.963 221.791 272.949 221.93 272.942H238.419C238.6 272.942 238.779 272.987 238.939 273.071C239.098 273.156 239.235 273.279 239.337 273.429C239.438 273.579 239.501 273.752 239.521 273.932C239.54 274.112 239.515 274.294 239.448 274.462L213.268 339.844C212.802 341.007 212.563 342.249 212.563 343.502V351.52C212.563 354.13 213.6 356.634 215.446 358.48C217.292 360.326 219.795 361.363 222.406 361.363H253.093C254.298 361.363 255.492 361.126 256.606 360.665C257.719 360.203 258.731 359.527 259.583 358.675C260.436 357.823 261.112 356.811 261.573 355.697C262.034 354.584 262.272 353.39 262.271 352.185V352.182V352.179Z"
          fill="black"/>
    <path class="dark:invert"
          d="M315.418 277.85C315.482 274.356 315.154 270.866 314.44 267.445C313.881 264.562 312.763 262.265 311.086 260.553C309.503 258.751 307.267 257.49 304.38 256.769C301.585 255.959 297.999 255.553 293.622 255.553C289.43 255.553 284.63 255.959 281.742 256.769C279.127 257.387 276.748 258.749 274.896 260.688C273.22 262.58 272.009 265.148 271.264 268.391C270.518 271.544 270.146 275.553 270.146 280.418C270.146 285.102 270.192 288.886 270.285 291.769C270.407 294.127 270.687 296.475 271.124 298.796C271.475 300.33 272.089 301.793 272.94 303.12C273.742 304.264 274.68 305.308 275.734 306.228C277.197 307.513 278.789 308.645 280.485 309.606C282.348 310.687 284.257 311.723 286.213 312.714C288.169 313.706 290.032 314.741 291.802 315.822C293.47 316.759 295.018 317.894 296.413 319.201C296.965 319.798 297.479 320.43 297.95 321.092C298.289 321.492 298.553 321.95 298.729 322.444C298.89 322.885 299.025 323.335 299.133 323.792C299.286 324.504 299.358 325.23 299.347 325.957C299.44 327.038 299.487 328.525 299.487 330.417C299.526 332.991 299.386 335.564 299.068 338.119C298.978 339.575 298.597 340.999 297.95 342.308C297.458 343.157 296.658 343.786 295.714 344.065C294.783 344.335 291.563 344.47 290.165 344.47C289.034 344.492 287.905 344.355 286.812 344.065C285.932 343.668 285.2 343.006 284.716 342.173C284.164 340.878 283.788 339.514 283.599 338.119C283.389 335.877 283.296 333.626 283.319 331.375C283.319 331.124 283.306 330.873 283.28 330.623H283.224C282.967 328.831 282.069 327.19 280.695 326.004C279.32 324.817 277.562 324.164 275.743 324.164C273.924 324.164 272.166 324.817 270.792 326.004C269.418 327.19 268.52 328.831 268.263 330.623H268.219C268.189 330.898 268.176 331.174 268.178 331.45C268.179 331.514 268.18 331.576 268.18 331.64C268.18 331.659 268.177 331.677 268.177 331.696C268.177 331.728 268.182 331.758 268.182 331.789C268.205 333.564 268.23 335.157 268.23 335.957C268.23 341.272 268.603 345.596 269.348 348.93C270.186 352.172 271.49 354.74 273.26 356.632C275.093 358.469 277.423 359.736 279.966 360.281C283.213 361.064 286.547 361.427 289.886 361.362C294.358 361.362 300.139 360.956 303.119 360.145C305.939 359.439 308.445 357.824 310.245 355.551C312.108 353.299 313.412 350.191 314.157 346.227C314.995 342.173 315.415 336.993 315.415 330.687C315.415 326.092 315.275 322.399 314.995 319.606C314.912 317.261 314.488 314.939 313.738 312.714C313.196 311.09 312.288 309.611 311.083 308.39C309.866 307.153 308.506 306.065 307.031 305.147C305.682 304.298 304.282 303.531 302.84 302.85C301.256 301.949 299.58 301.093 297.81 300.282C296.04 299.381 294.364 298.48 292.78 297.579C291.375 296.714 290.022 295.766 288.728 294.742C288.124 294.249 287.563 293.707 287.052 293.12C286.647 292.503 286.362 291.815 286.213 291.093C285.997 290.069 285.857 289.03 285.794 287.985V282.85C285.769 280.909 285.862 278.969 286.073 277.039C286.181 275.861 286.513 274.715 287.052 273.661C287.526 272.91 288.279 272.375 289.147 272.175C289.986 271.904 292.318 271.769 293.622 271.769C296.602 271.769 298.465 272.625 299.21 274.337C299.8 275.419 300.132 276.62 300.183 277.85C300.214 278.834 300.229 280.113 300.233 281.454H300.286C300.286 281.472 300.283 281.49 300.283 281.508C300.283 283.506 301.08 285.422 302.499 286.834C303.918 288.247 305.842 289.04 307.849 289.04C309.855 289.04 311.78 288.247 313.199 286.834C314.617 285.422 315.415 283.506 315.415 281.508C315.415 281.49 315.412 281.473 315.412 281.454H315.415C315.416 279.953 315.418 278.607 315.418 277.85Z"
          fill="black"/>
    <path class="dark:invert"
          d="M371.357 263.934C371.363 262.707 371.114 261.491 370.624 260.366C370.134 259.24 369.415 258.229 368.512 257.397C367.61 256.565 366.544 255.931 365.382 255.534C364.22 255.138 362.989 254.987 361.766 255.094C360.543 255.2 359.356 255.56 358.28 256.15C357.204 256.741 356.263 257.55 355.517 258.525C354.772 259.5 354.237 260.62 353.949 261.813C353.66 263.006 353.623 264.246 353.841 265.454V296.915C353.841 297.437 353.633 297.938 353.264 298.307C352.895 298.677 352.394 298.884 351.872 298.884H340.956C340.434 298.884 339.933 298.677 339.564 298.307C339.195 297.938 338.987 297.437 338.987 296.915V264.132C338.987 264.099 338.983 264.066 338.982 264.033C338.983 264 338.987 263.967 338.987 263.934C338.987 261.593 338.057 259.347 336.402 257.692C334.746 256.036 332.501 255.106 330.159 255.106C327.818 255.106 325.573 256.036 323.917 257.692C322.261 259.347 321.331 261.593 321.331 263.934C321.331 263.967 321.336 264 321.336 264.033C321.337 264.066 321.331 264.099 321.331 264.132V352.553L321.332 352.57L321.331 352.586C321.331 354.927 322.261 357.173 323.917 358.828C325.573 360.484 327.818 361.414 330.159 361.414C332.501 361.414 334.746 360.484 336.402 358.828C338.057 357.173 338.987 354.927 338.987 352.586L338.986 352.57L338.987 352.553V317.528C338.987 317.006 339.195 316.505 339.564 316.136C339.933 315.767 340.434 315.559 340.956 315.559H351.872C352.394 315.559 352.895 315.767 353.264 316.136C353.633 316.505 353.841 317.006 353.841 317.528V351.033C353.612 352.302 353.665 353.606 353.996 354.853C354.327 356.099 354.929 357.257 355.758 358.245C356.588 359.232 357.624 360.025 358.794 360.567C359.964 361.109 361.24 361.387 362.529 361.381C362.541 361.381 362.552 361.379 362.564 361.379C362.576 361.379 362.587 361.381 362.599 361.381C363.749 361.381 364.888 361.154 365.951 360.714C367.013 360.274 367.979 359.629 368.792 358.816C369.605 358.003 370.25 357.037 370.69 355.974C371.131 354.912 371.357 353.773 371.357 352.623V264.062C371.357 264.04 371.354 264.02 371.354 263.998C371.354 263.977 371.357 263.956 371.357 263.934Z"
          fill="black"/>
</svg>
